<?xml version="1.0" standalone="no"?>
<!DOCTYPE svg PUBLIC "-//W3C//DTD SVG 20010904//EN"
 "http://www.w3.org/TR/2001/REC-SVG-20010904/DTD/svg10.dtd">
<svg version="1.0" xmlns="http://www.w3.org/2000/svg"
 width="1200.000000pt" height="1200.000000pt" viewBox="0 0 1200.000000 1200.000000"
 preserveAspectRatio="xMidYMid meet">
<metadata>
Created by potrace 1.11, written by Peter Selinger 2001-2013
</metadata>
<g transform="translate(0.000000,1200.000000) scale(0.100000,-0.100000)"
fill="#000000" stroke="none">
<path d="M4997 10604 c-4 -5 -126 -9 -270 -10 -305 -2 -966 -14 -1082 -19 -44
-2 -88 -4 -97 -4 -10 -1 -18 -5 -18 -10 0 -5 28 -10 63 -11 34 -1 94 -3 132
-5 200 -8 908 -17 1710 -20 l900 -3 -2 -104 c-1 -57 -2 -191 -3 -298 -2 -107
-4 -202 -6 -210 -3 -13 -135 -15 -1101 -17 -1246 -2 -1684 -6 -1701 -17 -7 -4
-12 -4 -12 1 0 9 -70 10 -85 1 -5 -3 -19 -3 -30 -1 -25 5 -16 5 -180 0 -77 -3
-173 -7 -212 -8 -104 -3 -96 -23 10 -26 252 -8 662 -15 874 -17 134 0 243 -5
243 -9 0 -5 5 -5 12 -1 14 9 232 9 246 0 5 -3 12 -2 16 1 3 4 55 5 114 4 59
-2 373 -4 697 -4 l590 -2 -2 -45 c-4 -86 -13 -628 -18 -1055 -3 -236 -5 -430
-6 -430 0 0 -1 -17 -2 -38 -1 -20 2 -37 6 -37 5 0 5 -6 1 -12 -11 -18 -12 -48
-2 -48 5 0 4 -10 -3 -21 -8 -16 -8 -20 1 -14 9 6 9 3 1 -13 -6 -11 -11 -23
-11 -27 0 -3 5 -3 11 1 8 4 8 1 0 -14 -13 -24 -11 -43 4 -54 6 -5 5 -11 -4
-17 -10 -7 -11 -13 -1 -31 7 -12 8 -20 2 -16 -13 8 -10 -97 3 -106 6 -5 6 -8
-2 -8 -14 0 -13 -42 2 -52 6 -5 6 -8 -2 -8 -7 0 -13 -5 -13 -11 0 -5 6 -7 13
-3 9 6 9 4 1 -7 -7 -8 -11 -54 -10 -116 l1 -102 -35 -6 c-19 -4 -46 -9 -60
-11 -14 -2 -61 -11 -105 -19 -44 -8 -96 -17 -116 -19 -20 -3 -42 -8 -50 -10
-8 -3 -32 -8 -53 -11 -21 -3 -51 -8 -65 -12 -14 -3 -37 -7 -51 -9 -14 -1 -25
-3 -25 -4 0 -1 -11 -3 -25 -5 -25 -3 -72 -11 -120 -20 -59 -12 -78 -16 -135
-25 -33 -5 -71 -12 -85 -15 -30 -7 -76 -15 -110 -19 -14 -2 -32 -6 -40 -9 -8
-4 -33 -8 -55 -11 -22 -3 -85 -14 -140 -24 -55 -11 -116 -23 -135 -26 -19 -3
-71 -12 -115 -21 -106 -20 -125 -24 -155 -30 -14 -2 -36 -7 -50 -9 -14 -3 -36
-7 -50 -10 -28 -6 -271 -53 -310 -60 -14 -3 -26 -5 -27 -7 -2 -1 -6 -2 -10 -3
-21 -5 -129 -29 -140 -30 -7 -1 -16 -6 -20 -10 -7 -7 107 0 158 9 9 2 40 6 69
10 29 4 60 8 69 10 9 1 36 6 61 10 25 4 52 9 61 10 9 2 38 6 65 9 61 8 99 14
144 22 19 3 49 7 65 9 17 2 30 4 30 5 0 1 11 3 25 5 14 1 43 5 65 9 22 4 54 9
70 11 17 3 41 7 55 10 14 3 39 7 55 9 17 3 72 12 124 21 51 9 96 14 99 11 3
-3 10 -1 17 4 6 5 32 12 56 15 24 3 58 9 74 12 17 3 45 7 63 7 17 1 32 4 32 8
0 4 10 7 23 7 20 -1 66 5 121 17 11 3 37 7 56 10 60 8 87 12 117 18 15 3 44 8
63 11 19 3 42 8 50 10 8 2 40 7 70 10 30 4 58 9 61 11 4 2 27 6 50 9 24 3 64
9 89 15 25 5 62 11 83 14 37 4 37 4 37 -33 -3 -1711 3 -3091 13 -3091 8 0 9
-3 1 -8 -13 -9 -13 -243 0 -234 5 3 6 -1 1 -8 -11 -18 -15 -60 -6 -60 4 0 8
-7 8 -15 0 -8 -4 -12 -9 -9 -4 3 -8 1 -8 -5 0 -5 5 -13 10 -16 7 -4 6 -14 -1
-28 -9 -16 -9 -22 0 -25 6 -2 9 -8 5 -13 -11 -19 -12 -49 -1 -49 7 0 6 -4 -3
-10 -10 -6 -11 -10 -3 -10 9 0 10 -7 3 -24 -5 -15 -5 -27 3 -35 8 -8 8 -11 0
-11 -8 0 -9 -9 -3 -29 5 -19 4 -33 -3 -40 -8 -8 -8 -14 -2 -19 6 -4 10 -120
10 -307 0 -188 4 -303 10 -307 7 -5 7 -8 0 -8 -6 0 -9 -23 -8 -52 1 -29 4
-176 5 -325 2 -150 6 -273 10 -273 4 0 3 -11 -2 -24 -5 -13 -6 -27 -2 -30 3
-4 6 -22 7 -41 1 -40 -19 -51 -92 -50 -24 0 -43 -3 -43 -7 0 -3 -15 -5 -32 -4
-18 1 -40 -1 -48 -5 -8 -4 -35 -10 -60 -14 -103 -15 -129 -20 -190 -36 -25 -6
-52 -12 -60 -14 -8 -2 -15 -4 -15 -6 0 -1 -11 -3 -25 -4 -14 -1 -32 -5 -40 -8
-13 -5 -120 -36 -145 -42 -5 -1 -17 -5 -25 -8 -24 -10 -111 -38 -129 -42 -9
-2 -42 -15 -74 -29 -31 -14 -60 -26 -65 -27 -12 -2 -51 -18 -108 -44 -30 -14
-59 -25 -64 -25 -6 0 -10 -4 -10 -8 0 -4 -9 -8 -19 -9 -11 -1 -37 -14 -60 -28
-22 -15 -45 -24 -50 -20 -6 3 -11 2 -11 -2 0 -5 -17 -17 -37 -28 -21 -11 -70
-39 -110 -62 -39 -23 -74 -39 -77 -36 -3 4 -6 1 -6 -5 0 -6 -15 -19 -32 -28
-18 -9 -35 -20 -38 -24 -3 -4 -17 -13 -31 -21 -44 -24 -114 -72 -117 -80 -2
-5 -10 -9 -18 -9 -8 0 -14 -3 -14 -7 0 -5 -20 -21 -45 -38 -24 -16 -45 -33
-45 -37 0 -5 -6 -8 -13 -8 -7 0 -19 -9 -27 -19 -7 -11 -16 -19 -19 -17 -3 1
-22 -13 -41 -31 l-35 -33 82 0 c61 0 86 4 97 16 9 8 16 13 16 10 0 -3 11 5 24
17 41 37 56 48 56 40 0 -4 4 -3 8 3 10 16 198 144 210 144 6 0 12 3 14 8 2 4
27 22 56 39 29 18 50 27 47 20 -4 -6 -1 -5 7 4 13 16 73 50 84 48 4 0 10 3 13
8 9 13 91 54 91 45 0 -4 5 1 11 11 5 9 16 17 24 17 8 0 31 9 52 19 60 30 175
79 206 86 15 4 27 11 27 16 0 5 3 8 8 7 4 -1 32 6 62 17 30 10 60 20 65 21 6
1 37 11 70 23 32 11 63 17 67 15 4 -3 8 0 8 7 0 7 3 9 7 6 3 -4 12 -2 20 4 7
6 13 9 13 6 0 -3 15 -1 33 4 17 6 39 12 47 14 8 2 15 4 15 5 0 1 11 3 25 5 14
2 52 10 85 19 33 8 63 12 67 10 5 -3 8 -2 8 3 0 4 12 9 28 10 43 4 97 11 97
13 0 2 11 4 25 5 14 2 48 7 75 11 28 4 67 8 87 8 21 1 38 3 38 6 0 3 30 5 68
5 37 0 70 5 75 10 4 6 10 5 16 -4 5 -7 11 -9 14 -4 11 17 435 5 617 -17 41 -5
87 -11 103 -12 15 -1 27 -5 27 -8 0 -3 12 -5 28 -6 38 -1 151 -23 255 -50 47
-12 64 -16 92 -21 17 -3 32 -8 35 -11 3 -4 19 -8 35 -10 17 -2 34 -8 40 -13 5
-5 17 -9 26 -9 10 0 30 -5 46 -12 15 -6 37 -13 47 -15 10 -2 38 -12 61 -22 24
-10 57 -22 74 -26 17 -3 33 -11 36 -16 4 -5 15 -9 26 -9 10 0 19 -5 19 -11 0
-5 3 -8 8 -6 4 3 34 -8 67 -24 33 -16 66 -29 73 -29 6 0 12 -5 12 -11 0 -5 4
-8 9 -5 5 3 14 -1 21 -9 7 -8 21 -15 31 -15 11 0 19 -4 19 -10 0 -5 6 -10 14
-10 7 0 57 -25 111 -55 53 -30 99 -55 101 -55 3 0 10 -5 17 -10 7 -6 55 -37
107 -71 52 -33 101 -68 108 -77 6 -9 12 -12 12 -8 0 8 76 -44 108 -74 33 -31
60 -40 121 -40 91 0 84 16 -54 120 -33 25 -63 49 -67 55 -4 5 -8 6 -8 1 0 -5
-8 1 -19 12 -10 12 -21 22 -24 22 -3 0 -34 20 -69 44 -86 60 -230 146 -330
198 -46 24 -84 46 -86 50 -2 5 -11 8 -21 8 -9 0 -25 6 -36 13 -11 7 -36 19
-55 27 -19 7 -44 20 -54 29 -11 9 -17 11 -13 5 3 -6 -15 0 -41 12 -26 13 -53
24 -59 24 -7 0 -13 5 -13 12 0 6 -3 9 -6 6 -3 -4 -42 7 -87 24 -110 40 -197
67 -197 61 0 -3 -6 0 -14 6 -8 6 -18 11 -22 10 -5 -1 -17 1 -26 4 -10 4 -26
10 -35 14 -10 3 -25 7 -33 7 -8 1 -21 5 -27 9 -7 5 -13 6 -13 3 0 -2 -15 0
-32 5 -35 11 -39 12 -103 24 -22 5 -44 9 -50 11 -25 7 -54 12 -100 18 -27 4
-59 9 -69 13 -11 3 -36 7 -55 9 -20 2 -49 6 -66 8 -102 12 -174 19 -205 20
l-35 1 2 210 c0 116 4 476 8 800 9 757 9 741 1 754 -4 6 -3 11 1 11 5 0 8 23
8 50 0 28 -4 50 -9 50 -5 0 -5 5 1 13 11 15 10 147 -1 166 -5 8 -5 12 0 9 12
-8 13 241 14 1884 l0 1336 73 12 c80 14 100 17 137 25 14 2 41 7 60 10 19 3
42 8 50 10 8 2 33 6 55 10 22 3 94 15 160 27 66 11 129 22 140 24 11 1 20 3
20 4 0 1 11 3 25 5 14 2 39 6 55 9 32 6 124 23 165 30 14 2 65 11 115 21 49 9
105 19 125 21 47 7 75 12 75 14 0 2 9 4 20 5 21 3 123 21 165 30 29 6 70 13
120 20 19 2 53 9 75 14 22 6 56 13 75 16 71 12 256 45 280 50 14 3 36 7 50 10
14 3 36 7 50 10 33 8 69 15 100 19 14 2 25 5 25 6 0 1 9 3 20 5 11 1 34 5 50
9 17 3 46 9 65 12 57 9 255 51 255 54 0 1 12 3 26 5 35 5 109 25 109 30 0 5
-64 0 -126 -9 -23 -4 -59 -8 -80 -11 -21 -2 -59 -7 -84 -11 -70 -10 -72 -10
-130 -18 -30 -5 -63 -12 -72 -18 -12 -6 -18 -5 -18 3 0 8 -4 8 -12 2 -12 -9
-34 -13 -85 -16 -13 0 -23 -3 -23 -6 0 -4 -15 -6 -33 -7 -17 -1 -62 -6 -100
-13 -37 -6 -79 -13 -95 -15 -15 -2 -54 -8 -87 -14 -33 -6 -80 -14 -105 -17
-24 -4 -47 -8 -50 -10 -3 -1 -27 -6 -55 -9 -27 -4 -61 -9 -75 -11 -14 -3 -39
-7 -57 -9 -18 -3 -40 -7 -50 -10 -10 -2 -38 -7 -63 -10 -25 -3 -56 -8 -70 -11
-14 -4 -41 -8 -60 -10 -42 -5 -92 -14 -140 -24 -19 -4 -45 -7 -57 -6 -13 1
-23 -1 -23 -5 0 -4 -6 -7 -12 -7 -35 -2 -453 -72 -583 -97 -11 -2 -40 -7 -65
-11 -25 -4 -53 -9 -63 -11 -114 -21 -260 -44 -263 -41 -2 2 -5 233 -7 513 -2
281 -7 516 -11 522 -4 7 -4 12 1 12 4 0 7 48 6 107 -1 60 -3 313 -5 563 l-3
455 180 2 c99 0 254 2 345 3 91 1 170 1 175 0 6 -1 12 -2 15 -1 3 1 201 3 441
5 240 2 441 5 445 7 5 2 109 4 231 4 123 0 223 2 223 5 0 3 9 6 20 6 11 0 20
-5 20 -11 0 -6 3 -7 8 0 4 6 27 11 52 11 25 1 59 3 75 4 l30 2 -30 9 c-16 5
-43 9 -60 8 -34 0 -430 10 -430 11 0 2 -550 9 -787 10 -114 1 -211 -1 -216 -4
-5 -3 -12 -3 -16 1 -3 3 -165 7 -360 7 -195 1 -357 4 -360 6 -2 3 -7 144 -11
313 -4 245 -3 307 7 307 7 1 441 3 963 5 1049 4 1448 10 1873 28 27 1 10 17
-20 18 -18 1 -58 3 -88 4 -87 5 -830 18 -1097 19 -134 0 -243 5 -243 10 0 5
-6 4 -12 -1 -7 -5 -87 -8 -178 -6 -204 3 -2162 4 -2393 0 -92 -1 -168 2 -170
6 -1 5 -6 5 -10 1z m1323 -794 c9 -5 9 -13 2 -27 -8 -14 -8 -23 0 -31 9 -9 9
-12 -1 -12 -7 0 -9 -5 -5 -12 11 -17 12 -48 3 -54 -5 -2 -4 -15 1 -28 5 -13 6
-26 3 -29 -4 -5 -11 -852 -12 -1673 l-1 -322 -47 -7 c-27 -4 -59 -9 -73 -11
-14 -2 -96 -17 -182 -32 l-158 -28 -1 145 c0 80 -1 388 -2 683 -1 298 -6 538
-11 538 -5 0 -4 6 2 13 7 8 7 18 2 27 -5 8 -5 21 1 31 6 11 5 20 -1 24 -7 4
-7 12 0 25 7 13 7 21 0 25 -7 4 -7 13 0 26 6 10 7 19 3 19 -4 0 -8 16 -8 35 0
19 4 35 8 35 5 0 5 6 0 12 -4 7 -8 94 -10 193 -1 99 -4 236 -6 305 -3 69 -3
128 -2 131 6 8 481 7 495 -1z m-10 -3737 c1 -1801 6 -2842 14 -2850 3 -3 1
-12 -5 -19 -7 -8 -7 -14 0 -18 6 -4 7 -16 2 -29 -5 -12 -5 -31 -1 -42 4 -11 3
-26 -2 -32 -6 -7 -7 -13 -2 -13 5 0 10 -107 10 -238 1 -130 4 -308 7 -395 l5
-157 -177 -1 c-179 0 -297 -5 -318 -13 -17 -7 -20 10 -16 109 2 50 5 173 6
275 1 110 6 188 12 192 6 5 6 8 -2 8 -12 0 -12 17 0 38 5 6 5 12 0 12 -4 0 -8
11 -8 25 0 14 4 25 8 25 4 0 3 9 -3 19 -7 14 -7 22 0 26 8 5 8 11 1 19 -6 7
-8 15 -5 19 9 9 11 67 2 67 -5 0 -5 8 0 18 5 9 10 972 11 2177 1 1188 6 2163
9 2166 6 6 265 53 362 66 19 3 37 7 39 9 2 2 15 4 28 4 l23 0 0 -1467z"/>
<path d="M2896 9848 c3 -5 10 -6 15 -3 13 9 11 12 -6 12 -8 0 -12 -4 -9 -9z"/>
</g>
</svg>
